<svg width="56" height="56" xmlns="http://www.w3.org/2000/svg" xmlns:xlink="http://www.w3.org/1999/xlink" xml:space="preserve" overflow="hidden"><g transform="translate(-346 -312)"><g><g><g><g><path d="M375.159 334.272 375.159 334.272 378.384 335.607C378.5 333.49 380.309 331.868 382.426 331.983 383.901 332.063 385.198 332.982 385.764 334.347 386.31 335.713 386.052 337.27 385.093 338.386L388.978 339.996 389.046 340.024 394.77 326.177 380.882 320.448 378.722 325.759 378.556 326.154 378.51 325.971C377.88 324.456 376.143 323.736 374.626 324.361 373.961 324.648 373.419 325.162 373.096 325.81 372.56 327.359 373.38 329.05 374.929 329.586 375.616 329.824 376.367 329.802 377.038 329.523L377.221 329.448 377.112 329.712Z" fill="#D56F03" fill-rule="nonzero" fill-opacity="1"/><path d="M373.709 354.594C375.211 354.097 376.026 352.476 375.529 350.974 375.032 349.472 373.412 348.658 371.91 349.155 371.339 349.343 370.842 349.707 370.49 350.194L370.49 345.038 367.012 345.038C367.037 345.227 367.051 345.419 367.052 345.61 367.052 348.142 365 350.194 362.469 350.194 359.937 350.194 357.885 348.142 357.885 345.61 357.887 345.419 357.9 345.227 357.926 345.038L354.448 345.038 354.448 359.933 370.49 359.933 370.49 353.631C370.553 353.719 370.622 353.803 370.696 353.883 370.727 353.942 370.763 353.998 370.805 354.049 371.482 354.698 372.448 354.948 373.354 354.708 373.452 354.708 373.543 354.651 373.635 354.622Z" fill="#D56F03" fill-rule="nonzero" fill-opacity="1"/><path d="M380.802 345.026C380.891 344.961 380.975 344.891 381.054 344.814 381.117 344.79 381.173 344.753 381.22 344.705 381.925 343.951 382.158 342.87 381.828 341.892L381.828 341.806C381.295 340.316 379.656 339.54 378.166 340.073 376.676 340.605 375.9 342.244 376.433 343.734 376.615 344.244 376.938 344.692 377.365 345.026L372.208 345.026 372.208 347.375C372.398 347.352 372.59 347.341 372.781 347.341 375.313 347.341 377.365 349.393 377.365 351.924 377.365 354.455 375.313 356.507 372.781 356.507 372.59 356.506 372.398 356.492 372.208 356.467L372.208 359.922 387.104 359.922 387.104 345.026Z" fill="#D56F03" fill-rule="nonzero" fill-opacity="1"/><path d="M370.49 333.212 370.49 327.266 354.448 327.266 354.448 343.307 360.75 343.307C360.029 343.848 359.604 344.697 359.604 345.599 359.604 347.181 360.887 348.464 362.469 348.464 364.051 348.464 365.333 347.181 365.333 345.599 365.333 344.697 364.909 343.848 364.188 343.307L370.49 343.307 370.49 337.418C369.257 338.574 367.339 338.574 366.107 337.418 364.946 336.284 364.924 334.423 366.058 333.262 366.074 333.245 366.09 333.229 366.107 333.212 367.339 332.056 369.257 332.056 370.49 333.212Z" fill="#D56F03" fill-rule="nonzero" fill-opacity="1"/></g></g></g></g></g></svg>