<svg width="56" height="56" xmlns="http://www.w3.org/2000/svg" xmlns:xlink="http://www.w3.org/1999/xlink" xml:space="preserve" overflow="hidden"><g transform="translate(-110 -314)"><g><g><g><g><path d="M131.579 356.365C131.279 355.979 131.332 355.426 131.699 355.104L140.001 347.782C140.385 347.443 140.422 346.857 140.083 346.472 140.058 346.443 140.03 346.416 140.001 346.39L130.668 338.203 113.865 350.681 113.865 364.271 138.66 364.271Z" fill="#3267BA" fill-rule="nonzero" fill-opacity="1"/><path d="M148.131 331.105 137.927 342.42 142.9 347.003C143.275 347.348 143.299 347.931 142.954 348.306 142.937 348.325 142.919 348.344 142.9 348.361L135.905 354.892C135.53 355.238 135.507 355.821 135.852 356.196 135.899 356.246 135.951 356.291 136.008 356.33L147.523 364.271 163.135 364.271 163.135 346.109Z" fill="#3267BA" fill-rule="nonzero" fill-opacity="1"/><path d="M116.156 327.031 119.021 327.031 119.021 328.177 116.156 328.177Z" fill="#3267BA" fill-rule="nonzero" fill-opacity="1"/><path d="M120.075 324.934 118.081 322.901 118.895 322.07 120.883 324.104 120.075 324.934Z" fill="#3267BA" fill-rule="nonzero" fill-opacity="1"/><path d="M127.042 327.673C127.042 329.571 125.503 331.11 123.604 331.11 121.706 331.11 120.167 329.571 120.167 327.673 120.167 325.774 121.706 324.235 123.604 324.235 125.503 324.235 127.042 325.774 127.042 327.673Z" fill="#3267BA" fill-rule="nonzero" fill-opacity="1"/><path d="M123.031 320.156 124.177 320.156 124.177 323.021 123.031 323.021Z" fill="#3267BA" fill-rule="nonzero" fill-opacity="1"/><path d="M128.188 327.031 131.052 327.031 131.052 328.177 128.188 328.177Z" fill="#3267BA" fill-rule="nonzero" fill-opacity="1"/><path d="M127.133 324.934 129.127 322.901 128.314 322.07 126.326 324.104 127.133 324.934Z" fill="#3267BA" fill-rule="nonzero" fill-opacity="1"/><path d="M120.075 330.337 118.081 332.377 118.895 333.202 120.883 331.168 120.075 330.337Z" fill="#3267BA" fill-rule="nonzero" fill-opacity="1"/><path d="M123.031 332.256 124.177 332.256 124.177 335.121 123.031 335.121Z" fill="#3267BA" fill-rule="nonzero" fill-opacity="1"/><path d="M127.133 330.337 129.127 332.377 128.314 333.202 126.326 331.168 127.133 330.337Z" fill="#3267BA" fill-rule="nonzero" fill-opacity="1"/></g></g></g></g></g></svg>