<svg width="56" height="56" xmlns="http://www.w3.org/2000/svg" xmlns:xlink="http://www.w3.org/1999/xlink" xml:space="preserve" overflow="hidden"><g transform="translate(-804 -313)"><g><g><g><g><path d="M51.3563 19.125 49.2188 16.9875C48.7125 16.4812 47.9813 16.4812 47.475 16.9312 47.025 17.3813 46.2938 17.4375 45.7875 16.9875 45.2812 16.4812 45.2812 15.6375 45.7875 15.1312 46.2375 14.625 46.1812 13.8938 45.7313 13.4437L40.5 8.26875C37.35 5.11875 31.05 4.05 24.8625 5.7375 24.8062 5.7375 24.75 5.79375 24.6938 5.79375 24.4688 5.9625 24.3 6.1875 24.3562 6.46875 24.4125 6.75 24.5813 6.975 24.8625 7.0875 25.65 7.36875 27.1125 7.81875 27.1125 7.81875 30.5437 9 33.975 13.5 34.425 14.4L18.1687 30.5437 17.7188 30.0938C17.2125 29.5875 16.425 29.5875 15.975 30.0938L2.925 43.2 2.98125 43.2563C1.9125 44.7188 2.08125 46.6875 3.375 47.9813 4.66875 49.2188 6.6375 49.4438 8.1 48.375L8.15625 48.4312 21.2625 35.325C21.7688 34.8188 21.7688 34.0312 21.2625 33.5812L20.8125 33.1313 36.9562 16.9875 39.5438 19.575C40.05 20.0813 40.7812 20.0813 41.2875 19.6313 41.7375 19.1812 42.4688 19.125 42.975 19.575 43.4813 20.0813 43.4813 20.925 42.975 21.4312 42.525 21.9375 42.5812 22.6687 43.0312 23.1187L45.225 25.2563C45.7313 25.7625 46.5187 25.7625 47.025 25.2563L51.3563 20.925C51.5812 20.7 51.75 20.3625 51.75 20.025 51.75 19.6875 51.6375 19.35 51.3563 19.125Z" fill="#000000" fill-rule="nonzero" fill-opacity="1" transform="matrix(1 0 0 1.01852 805 314)"/></g></g></g></g></g></svg>