<svg width="51" height="52" xmlns="http://www.w3.org/2000/svg" xmlns:xlink="http://www.w3.org/1999/xlink" xml:space="preserve" overflow="hidden"><g transform="translate(-573 -316)"><g><g><g><g><path d="M611.604 323.771C611.604 326.072 609.739 327.938 607.438 327.938 605.136 327.938 603.271 326.072 603.271 323.771 603.271 321.47 605.136 319.604 607.438 319.604 609.739 319.604 611.604 321.47 611.604 323.771Z" fill="#17803B" fill-rule="nonzero" fill-opacity="1"/><path d="M617.542 329.5C616.5 328.979 615.25 329.344 614.729 330.385L612.906 333.823 604.885 328.771C604.573 328.562 604.208 328.458 603.792 328.458L594.938 328.458C594.156 328.458 593.479 328.875 593.115 329.552L589.729 335.802C589.156 336.792 589.573 338.094 590.562 338.615 590.875 338.771 591.24 338.875 591.552 338.875 592.281 338.875 593.01 338.458 593.375 337.781L596.188 332.625 599.26 332.625 590.042 349.812 581.396 349.812C580.25 349.812 579.312 350.75 579.312 351.896 579.312 353.042 580.25 353.979 581.396 353.979L591.292 353.979C592.073 353.979 592.75 353.562 593.115 352.885L596.76 346.167 602.75 351.74 602.281 362.208C602.177 363.354 603.062 364.344 604.208 364.396 604.26 364.396 604.26 364.396 604.312 364.396 605.406 364.396 606.344 363.51 606.396 362.417L606.917 350.958C606.969 350.333 606.708 349.76 606.24 349.344L601.188 344.656 606.5 334.76 612.542 338.562C613.01 338.875 613.635 338.979 614.208 338.823 614.781 338.667 615.25 338.302 615.51 337.781L618.375 332.312C618.948 331.323 618.583 330.073 617.542 329.5Z" fill="#17803B" fill-rule="nonzero" fill-opacity="1"/></g></g></g></g></g></svg>